<svg width="18" height="20" viewBox="0 0 18 20" fill="none" xmlns="http://www.w3.org/2000/svg">
<path d="M12.7492 19.2308C12.7492 19.4348 12.6702 19.6304 12.5295 19.7747C12.3888 19.919 12.1981 20 11.9991 20H5.99855C5.79962 20 5.60883 19.919 5.46817 19.7747C5.3275 19.6304 5.24848 19.4348 5.24848 19.2308C5.24848 19.0268 5.3275 18.8311 5.46817 18.6868C5.60883 18.5426 5.79962 18.4615 5.99855 18.4615H11.9991C12.1981 18.4615 12.3888 18.5426 12.5295 18.6868C12.6702 18.8311 12.7492 19.0268 12.7492 19.2308ZM17.7981 16.1538C17.668 16.389 17.479 16.5842 17.2508 16.7194C17.0225 16.8546 16.7632 16.9249 16.4995 16.9231H1.49812C1.23441 16.9227 0.975453 16.8511 0.74735 16.7153C0.519248 16.5796 0.330059 16.3847 0.198854 16.1501C0.0676487 15.9155 -0.000936971 15.6495 9.66811e-06 15.3791C0.000956307 15.1087 0.0714019 14.8432 0.204246 14.6096C0.724608 13.6904 1.49812 11.0904 1.49812 7.69231C1.49812 5.65218 2.28837 3.69561 3.69503 2.25302C5.10168 0.810437 7.00952 0 8.99883 0C10.9881 0 12.896 0.810437 14.3026 2.25302C15.7093 3.69561 16.4995 5.65218 16.4995 7.69231C16.4995 11.0894 17.274 13.6904 17.7944 14.6096C17.9285 14.8436 17.9995 15.1099 18 15.3813C18.0005 15.6527 17.9305 15.9194 17.7972 16.1538H17.7981ZM16.4995 15.3846C15.7748 14.1087 14.9994 11.1587 14.9994 7.69231C14.9994 6.06021 14.3672 4.49495 13.2419 3.34088C12.1166 2.18681 10.5903 1.53846 8.99883 1.53846C7.40738 1.53846 5.88111 2.18681 4.75579 3.34088C3.63046 4.49495 2.99826 6.06021 2.99826 7.69231C2.99826 11.1596 2.22194 14.1096 1.49812 15.3846H16.4995Z" fill="#767A7A"/>
</svg>
