<svg width="21" height="21" viewBox="0 0 21 21" fill="none" xmlns="http://www.w3.org/2000/svg">
<path d="M2.121 21C1.51638 21 1.01194 20.7979 0.607687 20.3936C0.203437 19.9894 0.000875 19.4845 0 18.879V2.121C0 1.51638 0.202562 1.01194 0.607687 0.607687C1.01281 0.203437 1.51725 0.000875 2.121 0H18.8803C19.4841 0 19.9885 0.202562 20.3936 0.607687C20.7987 1.01281 21.0009 1.51725 21 2.121V18.8803C21 19.4841 20.7979 19.9885 20.3936 20.3936C19.9894 20.7987 19.4845 21.0009 18.879 21H2.121ZM1.3125 12.2325C1.6555 11.8737 2.05581 11.6047 2.51344 11.4253C2.96931 11.2459 3.444 11.1562 3.9375 11.1562H17.0625C17.556 11.1562 18.0311 11.2459 18.4879 11.4253C18.9446 11.6047 19.3445 11.8733 19.6875 12.2312V2.121C19.6875 1.91888 19.6035 1.73337 19.4355 1.5645C19.2675 1.39562 19.082 1.31162 18.879 1.3125H2.121C1.91888 1.3125 1.73337 1.3965 1.5645 1.5645C1.39562 1.7325 1.31162 1.918 1.3125 2.121V12.2325ZM2.121 19.6875H18.8803C19.0816 19.6875 19.2666 19.6035 19.4355 19.4355C19.6044 19.2675 19.6884 19.082 19.6875 18.879V15.0937C19.6875 14.3719 19.4307 13.7541 18.9171 13.2405C18.4034 12.7269 17.7852 12.4696 17.0625 12.4687H3.9375C3.21562 12.4687 2.59787 12.726 2.08425 13.2405C1.57062 13.755 1.31337 14.3727 1.3125 15.0937V18.8803C1.3125 19.0816 1.3965 19.2666 1.5645 19.4355C1.7325 19.6044 1.91756 19.6884 2.11969 19.6875M2.11969 19.6875H1.3125H19.6875H2.11969Z" fill="#A8A8A8"/>
</svg>
