<svg width="20" height="20" viewBox="0 0 20 20" fill="none" xmlns="http://www.w3.org/2000/svg">
<mask id="path-1-inside-1_1239_11339" fill="white">
</mask>
<path d="M11.8604 18.6046H8.13951V20H11.8604V18.6046ZM1.39535 11.8605V8.13956H1.17747e-06V11.8605H1.39535ZM18.6046 11.454V11.8605H19.9999V11.454H18.6046ZM12.6893 3.12655L16.372 6.44096L17.3051 5.40283L13.6232 2.08842L12.6893 3.12655ZM19.9999 11.454C19.9999 9.88281 20.0139 8.88747 19.6185 7.99817L18.3432 8.56654C18.5906 9.12281 18.6046 9.76002 18.6046 11.454H19.9999ZM16.372 6.44096C17.6306 7.57398 18.0958 8.01119 18.3432 8.56654L19.6185 7.99817C19.2223 7.10794 18.4734 6.45399 17.3051 5.40283L16.372 6.44096ZM8.16742 1.3954C9.63904 1.3954 10.1944 1.40656 10.6883 1.59633L11.1888 0.294004C10.3962 -0.0111109 9.53299 5.18933e-05 8.16742 5.18933e-05V1.3954ZM13.6232 2.08935C12.613 1.18051 11.9814 0.597259 11.1888 0.294004L10.6893 1.59633C11.1842 1.78609 11.6009 2.14702 12.6893 3.12655L13.6232 2.08935ZM8.13951 18.6046C6.36556 18.6046 5.10603 18.6028 4.14883 18.4744C3.21394 18.3488 2.67441 18.1126 2.28092 17.7191L1.29488 18.7051C1.99069 19.4028 2.87348 19.7107 3.96371 19.8577C5.03347 20.0019 6.40556 20 8.13951 20V18.6046ZM1.17747e-06 11.8605C1.17747e-06 13.5944 -0.00185928 14.9656 0.142326 16.0363C0.289303 17.1265 0.598139 18.0093 1.29395 18.706L2.27999 17.72C1.88744 17.3256 1.65116 16.786 1.52558 15.8502C1.39721 14.8949 1.39535 13.6344 1.39535 11.8605H1.17747e-06ZM11.8604 20C13.5944 20 14.9655 20.0019 16.0362 19.8577C17.1265 19.7107 18.0092 19.4019 18.706 18.706L17.7199 17.72C17.3255 18.1126 16.786 18.3488 15.8502 18.4744C14.8948 18.6028 13.6344 18.6046 11.8604 18.6046V20ZM18.6046 11.8605C18.6046 13.6344 18.6027 14.8949 18.4744 15.8512C18.3488 16.786 18.1125 17.3256 17.719 17.7191L18.7051 18.7051C19.4027 18.0093 19.7106 17.1265 19.8576 16.0363C20.0018 14.9665 19.9999 13.5944 19.9999 11.8605H18.6046ZM1.39535 8.13956C1.39535 6.36561 1.39721 5.10608 1.52558 4.14888C1.65116 3.214 1.88744 2.67446 2.28092 2.28098L1.29488 1.29493C0.597209 1.99074 0.289303 2.87353 0.142326 3.96376C-0.00185928 5.03352 1.17747e-06 6.40561 1.17747e-06 8.13956H1.39535ZM8.16742 5.18933e-05C6.42324 5.18933e-05 5.04557 -0.00180857 3.97115 0.142377C2.87627 0.289353 1.99069 0.59819 1.29395 1.294L2.27999 2.28005C2.67441 1.88749 3.21487 1.65121 4.15627 1.52563C5.11719 1.39726 6.38417 1.3954 8.16742 1.3954V5.18933e-05Z" fill="#A8A8A8"/>
<path d="M16.372 6.44096L15.8142 5.93963L16.9292 6.94307L16.372 6.44096ZM18.3432 8.56654L18.0379 7.88149L18.6483 9.25169L18.3432 8.56654ZM12.5991 2.10631L12.1321 2.62444L13.2464 3.62866L13.7134 3.11053L12.5991 2.10631ZM16.2819 5.42071L15.8149 5.93885L16.9292 6.94307L17.3961 6.42493L16.2819 5.42071ZM18.6753 7.59766L18.0381 7.88138L18.6483 9.25169L19.2855 8.96797L18.6753 7.59766ZM2.31823 18.7424L2.81125 18.2494L1.75059 17.1887L1.25757 17.6818L2.31823 18.7424ZM18.7424 17.6818L18.2493 17.1887L17.1887 18.2494L17.6817 18.7424L18.7424 17.6818ZM7.38951 18.6046V20H8.88951V18.6046H7.38951ZM12.6104 20V18.6046H11.1104V20H12.6104ZM1.39535 7.38956H1.17747e-06V8.88956H1.39535V7.38956ZM1.17747e-06 12.6105H1.39535V11.1105H1.17747e-06V12.6105ZM18.6046 12.6105H19.9999V11.1105H18.6046V12.6105ZM19.9999 10.704H18.6046V12.204H19.9999V10.704ZM16.9299 6.9423L17.8629 5.90416L16.7472 4.90149L15.8142 5.93963L16.9299 6.9423ZM19.3132 7.31312L18.0379 7.88149L18.6485 9.25159L19.9238 8.68322L19.3132 7.31312ZM7.41742 5.18933e-05V1.3954H8.91742V5.18933e-05H7.41742ZM12.6893 3.12655L11.6858 4.2415L11.6858 4.24151L12.6893 3.12655ZM16.372 6.44096L17.3756 5.32614L17.3755 5.32601L16.372 6.44096ZM18.3432 8.56654L19.7137 7.9569L19.7133 7.95605L18.3432 8.56654ZM2.28092 17.7191L3.34158 16.6584L2.28092 15.5977L1.22026 16.6584L2.28092 17.7191ZM17.719 17.7191L16.6584 16.6584L15.5977 17.7191L16.6584 18.7797L17.719 17.7191ZM17.3051 5.40283L16.3015 6.51766L16.3018 6.51794L17.3051 5.40283ZM13.6232 2.08842L14.6268 0.973588L13.5116 -0.0302938L12.5081 1.08519L13.6232 2.08842ZM19.6185 7.99817L20.9892 7.38883L20.9889 7.38816L19.6185 7.99817ZM10.6883 1.59633L10.1504 2.99655L11.5505 3.53444L12.0885 2.13439L10.6883 1.59633ZM13.6232 2.08935L14.7379 3.09307L15.7421 1.97788L14.6264 0.974203L13.6232 2.08935ZM10.6893 1.59633L9.28876 1.05913L8.75152 2.45978L10.1522 2.99689L10.6893 1.59633ZM4.14883 18.4744L3.94913 19.9611L3.94944 19.9611L4.14883 18.4744ZM1.29488 18.7051L0.234221 17.6445L-0.825024 18.7037L0.232806 19.7644L1.29488 18.7051ZM3.96371 19.8577L3.7633 21.3442L3.76335 21.3442L3.96371 19.8577ZM0.142326 16.0363L-1.34425 16.2365L-1.34423 16.2367L0.142326 16.0363ZM1.29395 18.706L0.232582 19.766L1.29324 20.8281L2.35461 19.7667L1.29395 18.706ZM2.27999 17.72L3.34065 18.7807L4.39881 17.7225L3.34316 16.6618L2.27999 17.72ZM1.52558 15.8502L3.01225 15.6507L3.01222 15.6505L1.52558 15.8502ZM16.0362 19.8577L16.2364 21.3442L16.2366 21.3442L16.0362 19.8577ZM18.706 18.706L19.7659 19.7674L20.828 18.7067L19.7666 17.6454L18.706 18.706ZM17.7199 17.72L18.7806 16.6593L17.7225 15.6012L16.6618 16.6568L17.7199 17.72ZM15.8502 18.4744L15.6507 16.9877L15.6504 16.9878L15.8502 18.4744ZM18.4744 15.8512L19.961 16.0509L19.961 16.0507L18.4744 15.8512ZM18.7051 18.7051L17.6444 19.7658L18.7036 20.825L19.7643 19.7672L18.7051 18.7051ZM19.8576 16.0363L21.3442 16.2367L21.3442 16.2366L19.8576 16.0363ZM1.52558 4.14888L0.0389306 3.94918L0.038888 3.9495L1.52558 4.14888ZM2.28092 2.28098L3.34158 3.34164L4.40224 2.28098L3.34158 1.22031L2.28092 2.28098ZM1.29488 1.29493L2.35554 0.234272L1.2963 -0.824974L0.235638 0.232856L1.29488 1.29493ZM0.142326 3.96376L-1.34423 3.76336L-1.34423 3.7634L0.142326 3.96376ZM3.97115 0.142377L3.77164 -1.3443L3.77158 -1.34429L3.97115 0.142377ZM1.29395 1.294L0.233999 0.232633L-0.828078 1.29329L0.23329 2.35466L1.29395 1.294ZM2.27999 2.28005L1.21933 3.3407L2.27749 4.39886L3.33814 3.34321L2.27999 2.28005ZM4.15627 1.52563L4.35461 3.01246L4.35489 3.01242L4.15627 1.52563ZM11.8604 17.1046H8.13951V20.1046H11.8604V17.1046ZM8.13951 21.5H11.8604V18.5H8.13951V21.5ZM2.89535 11.8605V8.13956H-0.104654V11.8605H2.89535ZM-1.5 8.13956V11.8605H1.5V8.13956H-1.5ZM17.1046 11.454V11.8605H20.1046V11.454H17.1046ZM21.4999 11.8605V11.454H18.4999V11.8605H21.4999ZM11.6858 4.24151L15.3686 7.55592L17.3755 5.32601L13.6927 2.0116L11.6858 4.24151ZM18.3086 4.288L14.6268 0.973588L12.6196 3.20325L16.3015 6.51766L18.3086 4.288ZM12.5081 1.08519L11.5741 2.12333L13.8044 4.12978L14.7384 3.09164L12.5081 1.08519ZM21.4999 11.454C21.4999 10.0088 21.5434 8.63555 20.9892 7.38883L18.2479 8.60751C18.4843 9.13938 18.4999 9.75686 18.4999 11.454H21.4999ZM16.9727 9.17617C17.0596 9.37167 17.1046 9.61949 17.1046 11.454H20.1046C20.1046 9.90055 20.1216 8.87396 19.7137 7.9569L16.9727 9.17617ZM15.3685 7.55578C16.7321 8.78338 16.8865 8.98266 16.9731 9.17702L19.7133 7.95605C19.3051 7.03972 18.5292 6.36459 17.3756 5.32614L15.3685 7.55578ZM20.9889 7.38816C20.4331 6.13954 19.3823 5.25399 18.3083 4.28771L16.3018 6.51794C17.5645 7.65398 18.0114 8.07633 18.2482 8.60817L20.9889 7.38816ZM8.16742 2.8954C9.75954 2.8954 9.97808 2.93035 10.1504 2.99655L11.2263 0.196104C10.4107 -0.117227 9.51855 -0.104604 8.16742 -0.104604V2.8954ZM12.0885 2.13439L12.589 0.832071L9.78863 -0.244062L9.28817 1.05826L12.0885 2.13439ZM11.7277 -1.10584C10.6157 -1.53394 9.42431 -1.49995 8.16742 -1.49995V1.50005C9.64168 1.50005 10.1768 1.51172 10.6499 1.69385L11.7277 -1.10584ZM14.6264 0.974203C13.6964 0.13755 12.8367 -0.681533 11.7248 -1.10694L10.6528 1.69495C11.1261 1.87605 11.5295 2.22348 12.62 3.20449L14.6264 0.974203ZM9.7883 -0.24319L9.28876 1.05913L12.0898 2.13352L12.5893 0.831199L9.7883 -0.24319ZM10.1522 2.99689C10.3255 3.06335 10.508 3.18142 11.6858 4.2415L13.6927 2.01161C12.6938 1.11263 12.0428 0.508841 11.2263 0.195766L10.1522 2.99689ZM13.804 4.13028L14.7379 3.09307L12.5085 1.08562L11.5746 2.12283L13.804 4.13028ZM8.13951 17.1046C6.32322 17.1046 5.18252 17.0996 4.34821 16.9877L3.94944 19.9611C5.02954 20.106 6.40791 20.1046 8.13951 20.1046V17.1046ZM4.34852 16.9878C3.58123 16.8847 3.41043 16.7273 3.34158 16.6584L1.22026 18.7797C1.93839 19.4979 2.84666 19.813 3.94913 19.9611L4.34852 16.9878ZM1.22026 16.6584L0.234221 17.6445L2.35554 19.7658L3.34158 18.7797L1.22026 16.6584ZM0.232806 19.7644C1.25493 20.7892 2.50883 21.1751 3.7633 21.3442L4.16412 18.3711C3.23813 18.2463 2.72646 18.0164 2.35696 17.6459L0.232806 19.7644ZM3.76335 21.3442C4.95658 21.5051 6.448 21.5 8.13951 21.5V18.5C6.36312 18.5 5.11037 18.4987 4.16407 18.3711L3.76335 21.3442ZM-1.5 11.8605C-1.5 13.5521 -1.50505 15.0424 -1.34425 16.2365L1.62891 15.8361C1.50133 14.8887 1.5 13.6367 1.5 11.8605H-1.5ZM-1.34423 16.2367C-1.17493 17.4924 -0.787891 18.7442 0.232582 19.766L2.35532 17.6461C1.98417 17.2744 1.75354 16.7606 1.62888 15.8359L-1.34423 16.2367ZM2.35461 19.7667L3.34065 18.7807L1.21933 16.6593L0.233291 17.6454L2.35461 19.7667ZM3.34316 16.6618C3.27283 16.5912 3.11528 16.4185 3.01225 15.6507L0.0389044 16.0497C0.187041 17.1536 0.502049 18.06 1.21683 18.7781L3.34316 16.6618ZM3.01222 15.6505C2.90039 14.8183 2.89535 13.677 2.89535 11.8605H-0.104654C-0.104654 13.5918 -0.105982 14.9715 0.0389392 16.05L3.01222 15.6505ZM11.8604 21.5C13.5521 21.5 15.0424 21.505 16.2364 21.3442L15.836 18.3711C14.8887 18.4987 13.6367 18.5 11.8604 18.5V21.5ZM16.2366 21.3442C17.4924 21.1749 18.7441 20.7879 19.7659 19.7674L17.646 17.6447C17.2744 18.0158 16.7605 18.2465 15.8358 18.3711L16.2366 21.3442ZM19.7666 17.6454L18.7806 16.6593L16.6593 18.7807L17.6453 19.7667L19.7666 17.6454ZM16.6618 16.6568C16.5911 16.7272 16.4184 16.8847 15.6507 16.9877L16.0497 19.9611C17.1536 19.813 18.0599 19.4979 18.7781 18.7832L16.6618 16.6568ZM15.6504 16.9878C14.8182 17.0996 13.677 17.1046 11.8604 17.1046V20.1046C13.5918 20.1046 14.9714 20.106 16.0499 19.9611L15.6504 16.9878ZM17.1046 11.8605C17.1046 13.6769 17.0996 14.8183 16.9877 15.6516L19.961 16.0507C20.1059 14.9714 20.1046 13.592 20.1046 11.8605H17.1046ZM16.9877 15.6515C16.8846 16.4188 16.7272 16.5896 16.6584 16.6584L18.7797 18.7797C19.4978 18.0616 19.8129 17.1533 19.961 16.0509L16.9877 15.6515ZM16.6584 18.7797L17.6444 19.7658L19.7657 17.6445L18.7797 16.6584L16.6584 18.7797ZM19.7643 19.7672C20.7892 18.7451 21.175 17.4912 21.3442 16.2367L18.3711 15.8359C18.2462 16.7619 18.0163 17.2735 17.6458 17.643L19.7643 19.7672ZM21.3442 16.2366C21.505 15.0434 21.4999 13.552 21.4999 11.8605H18.4999C18.4999 13.6369 18.4986 14.8896 18.3711 15.8359L21.3442 16.2366ZM2.89535 8.13956C2.89535 6.32327 2.90038 5.18257 3.01227 4.34826L0.038888 3.9495C-0.105965 5.02959 -0.104654 6.40796 -0.104654 8.13956H2.89535ZM3.01223 4.34858C3.11529 3.58128 3.27273 3.41049 3.34158 3.34164L1.22026 1.22031C0.50214 1.93844 0.187023 2.84671 0.0389306 3.94918L3.01223 4.34858ZM3.34158 1.22031L2.35554 0.234272L0.234221 2.35559L1.22026 3.34164L3.34158 1.22031ZM0.235638 0.232856C-0.789218 1.25498 -1.17511 2.50888 -1.34423 3.76336L1.62888 4.16417C1.75371 3.23818 1.98363 2.72651 2.35412 2.35701L0.235638 0.232856ZM-1.34423 3.7634C-1.50506 4.95663 -1.5 6.44805 -1.5 8.13956H1.5C1.5 6.36317 1.50134 5.11042 1.62888 4.16412L-1.34423 3.7634ZM8.16742 -1.49995C6.46553 -1.49995 4.96901 -1.50498 3.77164 -1.3443L4.17066 1.62905C5.12212 1.50136 6.38095 1.50005 8.16742 1.50005V-1.49995ZM3.77158 -1.34429C2.51272 -1.1753 1.25692 -0.788924 0.233999 0.232633L2.3539 2.35537C2.72446 1.9853 3.23983 1.754 4.17072 1.62904L3.77158 -1.34429ZM0.23329 2.35466L1.21933 3.3407L3.34065 1.21938L2.35461 0.233341L0.23329 2.35466ZM3.33814 3.34321C3.40768 3.274 3.57997 3.11579 4.35461 3.01246L3.95793 0.0387997C2.84978 0.186626 1.94115 0.500972 1.22184 1.21688L3.33814 3.34321ZM4.35489 3.01242C5.19336 2.90041 6.34187 2.8954 8.16742 2.8954V-0.104604C6.42647 -0.104604 5.04103 -0.105894 3.95764 0.0388372L4.35489 3.01242Z" fill="#A8A8A8" mask="url(#path-1-inside-1_1239_11339)"/>
<path d="M10.9297 1.16309V3.48866C10.9297 5.68121 10.9297 6.77795 11.6106 7.45888C12.2915 8.13981 13.3883 8.13981 15.5808 8.13981H19.3018" stroke="#A8A8A8" stroke-width="1.5"/>
</svg>
