<svg width="54" height="54" viewBox="0 0 54 54" fill="none" xmlns="http://www.w3.org/2000/svg">
<g id="Property 1=Star 1">
<path id="Star 1" d="M26.1838 2.88375C26.5823 2.32079 27.4177 2.32079 27.8162 2.88375L35.4734 13.7006C35.854 14.2383 36.4011 14.6357 37.0301 14.8316L49.6837 18.7714C50.3423 18.9765 50.6004 19.7709 50.1881 20.3239L42.2669 30.9489C41.8732 31.4771 41.6642 32.1202 41.6723 32.7789L41.8355 46.0307C41.844 46.7204 41.1682 47.2114 40.5149 46.9902L27.9621 42.74C27.3381 42.5287 26.6619 42.5287 26.0379 42.74L13.4851 46.9902C12.8318 47.2114 12.156 46.7204 12.1645 46.0307L12.3277 32.7789C12.3358 32.1202 12.1268 31.4771 11.7331 30.9489L3.81187 20.3239C3.39961 19.7709 3.65775 18.9765 4.3163 18.7714L16.9699 14.8316C17.5989 14.6357 18.146 14.2383 18.5266 13.7006L26.1838 2.88375Z" fill="#FFE18D" stroke="#FFC411" stroke-width="2"/>
</g>
</svg>
