<svg width="20" height="13" viewBox="0 0 20 13" fill="none" xmlns="http://www.w3.org/2000/svg">
<g id="&#235;&#179;&#180;&#234;&#184;&#176;">
<path id="Vector" d="M9.72528 4.25256C10.7861 4.25256 11.8036 4.67399 12.5537 5.42413C13.3039 6.17428 13.7253 7.19169 13.7253 8.25256C13.7253 9.31343 13.3039 10.3308 12.5537 11.081C11.8036 11.8311 10.7861 12.2526 9.72528 12.2526C8.66442 12.2526 7.647 11.8311 6.89686 11.081C6.14671 10.3308 5.72528 9.31343 5.72528 8.25256C5.72528 7.19169 6.14671 6.17428 6.89686 5.42413C7.647 4.67399 8.66442 4.25256 9.72528 4.25256ZM9.72528 5.75256C9.06224 5.75256 8.42636 6.01595 7.95752 6.48479C7.48868 6.95363 7.22528 7.58952 7.22528 8.25256C7.22528 8.9156 7.48868 9.55149 7.95752 10.0203C8.42636 10.4892 9.06224 10.7526 9.72528 10.7526C10.3883 10.7526 11.0242 10.4892 11.4931 10.0203C11.9619 9.55149 12.2253 8.9156 12.2253 8.25256C12.2253 7.58952 11.9619 6.95363 11.4931 6.48479C11.0242 6.01595 10.3883 5.75256 9.72528 5.75256ZM9.72528 0.747559C14.3383 0.747559 18.3213 3.89756 19.4263 8.31156C19.4747 8.5045 19.4445 8.70877 19.3423 8.87943C19.24 9.05009 19.0742 9.17316 18.8813 9.22156C18.6883 9.26996 18.4841 9.23973 18.3134 9.13753C18.1428 9.03532 18.0197 8.8695 17.9713 8.67656C17.5083 6.84003 16.4455 5.21062 14.9513 4.04669C13.4572 2.88276 11.6172 2.25094 9.72322 2.2514C7.82923 2.25185 5.9896 2.88457 4.49601 4.04923C3.00243 5.21388 1.94039 6.8438 1.47828 8.68056C1.45445 8.77616 1.41202 8.86613 1.35341 8.94534C1.29481 9.02454 1.22117 9.09142 1.13672 9.14217C1.05226 9.19292 0.95864 9.22654 0.861193 9.2411C0.763747 9.25566 0.664386 9.25089 0.568784 9.22706C0.473182 9.20322 0.38321 9.16079 0.304006 9.10219C0.224803 9.04358 0.157918 8.96995 0.107171 8.88549C0.0564234 8.80104 0.0228077 8.70742 0.00824284 8.60997C-0.00632199 8.51252 -0.0015509 8.41316 0.022284 8.31756C0.564125 6.15459 1.81333 4.23477 3.57139 2.86319C5.32945 1.4916 7.49548 0.746949 9.72528 0.747559Z" fill="#D9D9D9"/>
</g>
</svg>
