<svg width="32" height="31" viewBox="0 0 32 31" fill="none" xmlns="http://www.w3.org/2000/svg">
<path d="M27.1995 4.64008C24.2194 1.66255 20.1935 -0.00536707 15.9997 1.29751e-05H15.8397C7.06585 0.088552 -0.000433654 7.29104 1.99605e-08 16.145C1.99605e-08 22.8 4.08792 28.391 10.6702 30.7368C11.1542 30.91 11.6638 30.999 12.1774 31C14.6453 30.9902 16.6406 28.9682 16.6397 26.4778C16.6397 24.6945 18.0723 23.2488 19.8396 23.2488H27.2331C29.3262 23.2588 31.1439 21.7968 31.601 19.7356C31.8764 18.5122 32.0101 17.2607 31.9994 16.0061C31.9692 11.7224 30.2407 7.62911 27.1995 4.64008ZM30.3578 19.4483C30.0305 20.922 28.7298 21.9664 27.2331 21.9572H19.8396C17.3654 21.9572 15.3597 23.9811 15.3597 26.4778C15.3558 28.702 13.1766 30.2563 11.0974 29.5179C5.04151 27.3593 1.27997 22.2349 1.27997 16.145C1.27954 8.00122 7.77764 1.37571 15.8477 1.29161H15.9997C25.452 1.28913 32.4567 10.149 30.3546 19.4483H30.3578ZM17.2797 7.74961C17.2797 8.74389 16.213 9.36531 15.3597 8.86817C14.5064 8.37103 14.5064 7.12819 15.3597 6.63105C15.5543 6.51769 15.775 6.45801 15.9997 6.45801C16.7066 6.45801 17.2797 7.03628 17.2797 7.74961ZM10.2398 11.6244C10.2398 12.6187 9.17316 13.2401 8.31985 12.743C7.46653 12.2458 7.46653 11.003 8.31985 10.5058C8.51443 10.3925 8.73515 10.3328 8.95983 10.3328C9.66675 10.3328 10.2398 10.9111 10.2398 11.6244ZM10.2398 20.6656C10.2398 21.6599 9.17316 22.2813 8.31985 21.7841C7.46653 21.287 7.46653 20.0442 8.31985 19.547C8.51443 19.4337 8.73515 19.374 8.95983 19.374C9.66675 19.374 10.2398 19.9523 10.2398 20.6656ZM24.3195 11.6244C24.3195 12.6187 23.2529 13.2401 22.3996 12.743C21.5463 12.2458 21.5463 11.003 22.3996 10.5058C22.5942 10.3925 22.8149 10.3328 23.0396 10.3328C23.7465 10.3328 24.3195 10.9111 24.3195 11.6244Z" fill="black"/>
</svg>
