<svg width="36" height="28" viewBox="0 0 36 28" fill="none" xmlns="http://www.w3.org/2000/svg">
<path d="M35.3793 26.8335H32.2759V14.3426L33.6988 15.6798C34.0369 15.9975 34.6141 15.8521 34.7378 15.4182C34.7952 15.2168 34.734 15.0019 34.5771 14.8545L19.3174 0.514659C18.5897 -0.171553 17.4072 -0.171553 16.6795 0.514659L1.42291 14.8545C1.08486 15.1721 1.23953 15.7146 1.70132 15.8308C1.91563 15.8848 2.1443 15.8272 2.3012 15.6798L3.72412 14.3426V26.8335H0.620668C0.142858 26.8341 -0.15498 27.3206 0.0845564 27.7091C0.195378 27.8889 0.3996 27.9997 0.620668 28H35.3793C35.8571 27.9993 36.155 27.5128 35.9154 27.1243C35.8046 26.9446 35.6004 26.8338 35.3793 26.8335ZM4.9655 13.1761L17.5609 1.34C17.8033 1.11191 18.1967 1.11191 18.4391 1.34L31.0345 13.1761V26.8335H22.3448V18.0843C22.3448 17.7622 22.0669 17.5011 21.7241 17.5011H14.2759C13.9331 17.5011 13.6552 17.7622 13.6552 18.0843V26.8335H4.9655V13.1761ZM21.1035 26.8335H14.8965V18.6676H21.1035V26.8335Z" fill="black"/>
</svg>
