<svg width="34" height="29" viewBox="0 0 34 29" fill="none" xmlns="http://www.w3.org/2000/svg">
<path d="M33.3703 0C30.1764 0 26.5763 1.69771 22.6661 5.0448C19.7586 7.53547 17.2526 10.4566 15.5824 12.5863C9.8375 10.5981 3.77715 14.6818 3.77626 20.5417C3.77626 25.5593 0.429612 27.7917 0.27849 27.8944C-0.123824 28.1538 -0.0825978 28.7338 0.352689 28.9384C0.438394 28.9787 0.532514 28.9997 0.62795 29H12.5915C18.6987 28.9991 22.9547 23.1842 20.8826 17.6719C23.1037 16.0663 26.1465 13.6617 28.7423 10.875C32.2307 7.12312 34 3.6688 34 0.604172C34 0.2705 33.7181 0 33.3703 0ZM12.5915 27.7917H2.25719C3.44726 26.5365 5.03558 24.1787 5.03558 20.5417C5.03558 14.9606 11.3322 11.4725 16.3695 14.263C21.4068 17.0535 21.4068 24.0298 16.3695 26.8203C15.2209 27.4566 13.9177 27.7916 12.5915 27.7917ZM16.7662 13.0938C17.4163 12.2721 18.2333 11.2813 19.173 10.2391C20.8664 11.2355 22.2903 12.6018 23.3288 14.2266C22.2364 15.1329 21.21 15.9122 20.3537 16.536C19.5328 15.0778 18.2859 13.8814 16.7662 13.0938ZM24.2859 13.417C23.1934 11.7676 21.7358 10.3691 20.0168 9.32078C23.4532 5.65349 28.2166 1.60558 32.7123 1.23552C32.3267 5.54928 28.1079 10.1198 24.2859 13.417Z" fill="black"/>
</svg>
