<svg xmlns="http://www.w3.org/2000/svg" width="28" height="29" viewBox="0 0 28 29" fill="none">
  <path d="M12.9678 2.83887C13.4641 2.11266 14.5359 2.11266 15.0322 2.83887L18.0146 7.20215C18.3587 7.70554 18.8602 8.08035 19.4404 8.26758L24.4707 9.89062C25.2778 10.1509 25.597 11.1223 25.1016 11.8105L21.8975 16.2607C21.5541 16.7378 21.3729 17.3127 21.3799 17.9004L21.4453 23.3828C21.4556 24.2504 20.6 24.8653 19.7812 24.5781L14.9102 22.8691C14.3211 22.6626 13.6789 22.6626 13.0898 22.8691L8.21875 24.5781C7.39997 24.8653 6.54437 24.2504 6.55469 23.3828L6.62012 17.9004C6.6271 17.3127 6.44592 16.7378 6.10254 16.2607L2.89844 11.8105C2.40302 11.1223 2.72223 10.1509 3.5293 9.89062L8.55957 8.26758C9.13984 8.08035 9.64129 7.70554 9.98535 7.20215L12.9678 2.83887Z" fill="white" stroke="#FFC411" stroke-width="1.5"/>
</svg>