<svg width="104" height="19" viewBox="0 0 104 19" fill="none" xmlns="http://www.w3.org/2000/svg">
<g clip-path="url(#clip0_175_142)">
<path opacity="0.902" fill-rule="evenodd" clip-rule="evenodd" d="M9 1.44385C4.29 1.44385 0 5.22985 0 8.43285C0 10.8328 1.558 12.9498 3.931 14.2078L2.933 17.8738C2.844 18.1988 3.213 18.4568 3.496 18.2698L7.873 15.3648C8.242 15.4008 8.618 15.4218 9 15.4218C13.97 15.4218 18 12.2928 18 8.43285C18 5.22985 13.97 1.44385 9 1.44385Z" fill="black"/>
</g>
<path d="M33.1485 4.647C33.1098 6.851 32.5927 8.68283 31.597 10.1425C30.6013 11.5925 29.19 12.7573 27.363 13.637L26.6815 12.8105C28.8565 11.8728 30.3838 10.4712 31.2635 8.6055L26.986 8.9825L26.754 7.982L31.6115 7.692C31.8242 7.00567 31.9498 6.29517 31.9885 5.5605H27.2905V4.647H33.1485ZM36.295 3.342V8.533H38.3685V9.4755H36.295V16.015H35.193V3.342H36.295ZM45.6944 4.647C45.6557 6.851 45.1386 8.68283 44.1429 10.1425C43.1472 11.5925 41.7359 12.7573 39.9089 13.637L39.2274 12.8105C41.4024 11.8728 42.9297 10.4712 43.8094 8.6055L39.5319 8.9825L39.2999 7.982L44.1574 7.692C44.3701 7.00567 44.4957 6.29517 44.5344 5.5605H39.8364V4.647H45.6944ZM48.8409 3.342V8.533H50.9144V9.4755H48.8409V16.015H47.7389V3.342H48.8409ZM61.9233 7.5905C61.9233 8.55717 61.556 9.34983 60.8213 9.9685C60.0963 10.5872 59.12 10.9352 57.8923 11.0125V13.4195H63.0833V14.3475H51.6428V13.4195H56.7903V11.0125C55.5723 10.9255 54.6008 10.5775 53.8758 9.9685C53.1508 9.34983 52.7883 8.55717 52.7883 7.5905C52.7883 6.5465 53.204 5.71033 54.0353 5.082C54.8763 4.45367 55.9783 4.1395 57.3413 4.1395C58.7236 4.1395 59.8305 4.45367 60.6618 5.082C61.5028 5.71033 61.9233 6.5465 61.9233 7.5905ZM59.8933 9.4465C60.541 8.9825 60.8648 8.36867 60.8648 7.605C60.8648 6.84133 60.5458 6.2275 59.9078 5.7635C59.2698 5.2995 58.4143 5.0675 57.3413 5.0675C56.2876 5.0675 55.4418 5.2995 54.8038 5.7635C54.1755 6.2275 53.8613 6.84133 53.8613 7.605C53.8613 8.36867 54.1755 8.9825 54.8038 9.4465C55.4418 9.90083 56.2876 10.128 57.3413 10.128C58.4046 10.128 59.2553 9.90083 59.8933 9.4465ZM79.4383 14.4055H67.9978V13.4775H73.1453V11.317H69.4043V7.3585H76.9153V5.3285H69.3898V4.4005H78.0173V8.272H70.5063V10.389H78.3798V11.317H74.2473V13.4775H79.4383V14.4055ZM91.9842 14.1445H80.5437V13.2165H91.9842V14.1445ZM90.3457 4.763C90.3457 7.88533 90.1572 10.3842 89.7802 12.2595L88.6782 12.1145C89.0358 10.4615 89.2147 8.3155 89.2147 5.6765H81.7327V4.763H90.3457ZM103.443 12.593H102.341V3.342H103.443V12.593ZM103.762 15.5945H95.1776V11.6795H96.2796V14.681H103.762V15.5945ZM96.7726 4.183C97.7489 4.183 98.5609 4.47783 99.2086 5.0675C99.8659 5.65717 100.195 6.416 100.195 7.344C100.195 8.272 99.8707 9.03083 99.2231 9.6205C98.5754 10.2005 97.7634 10.4905 96.7871 10.4905C95.8107 10.4905 94.9939 10.2005 94.3366 9.6205C93.6889 9.0405 93.3651 8.2865 93.3651 7.3585C93.3651 6.4305 93.6889 5.67167 94.3366 5.082C94.9939 4.48267 95.8059 4.183 96.7726 4.183ZM96.7726 5.14C96.0959 5.14 95.5352 5.34783 95.0906 5.7635C94.6459 6.17917 94.4236 6.706 94.4236 7.344C94.4236 7.97233 94.6459 8.49433 95.0906 8.91C95.5449 9.316 96.1104 9.519 96.7871 9.519C97.4831 9.519 98.0486 9.316 98.4836 8.91C98.9282 8.504 99.1506 7.98683 99.1506 7.3585C99.1506 6.70117 98.9282 6.1695 98.4836 5.7635C98.0486 5.34783 97.4782 5.14 96.7726 5.14Z" fill="black"/>
<defs>
<clipPath id="clip0_175_142">
<rect width="18" height="18" fill="white" transform="translate(0 0.5)"/>
</clipPath>
</defs>
</svg>
