<svg width="163" height="19" viewBox="0 0 163 19" fill="none" xmlns="http://www.w3.org/2000/svg">
<g clip-path="url(#clip0_175_142)">
<path opacity="0.902" fill-rule="evenodd" clip-rule="evenodd" d="M9 1.44385C4.29 1.44385 0 5.22985 0 8.43285C0 10.8328 1.558 12.9498 3.931 14.2078L2.933 17.8738C2.844 18.1988 3.213 18.4568 3.496 18.2698L7.873 15.3648C8.242 15.4008 8.618 15.4218 9 15.4218C13.97 15.4218 18 12.2928 18 8.43285C18 5.22985 13.97 1.44385 9 1.44385Z" fill="black"/>
</g>
<path d="M33.38 5.82C33.37 10.09 31.37 13.23 27.38 15.24L26.555 14.22C28.745 13.22 30.295 11.82 31.205 10.02L27.005 10.47L26.765 9.3L31.64 8.925C31.84 8.295 31.955 7.635 31.985 6.945H27.29V5.82H33.38ZM36.695 4.44V9.72H38.78V10.815H36.695V17.55H35.375V4.44H36.695ZM46.3585 5.82C46.3485 10.09 44.3485 13.23 40.3585 15.24L39.5335 14.22C41.7235 13.22 43.2735 11.82 44.1835 10.02L39.9835 10.47L39.7435 9.3L44.6185 8.925C44.8185 8.295 44.9335 7.635 44.9635 6.945H40.2685V5.82H46.3585ZM49.6735 4.44V9.72H51.7585V10.815H49.6735V17.55H48.3535V4.44H49.6735ZM63.327 8.895C63.327 9.915 62.942 10.755 62.172 11.415C61.412 12.065 60.387 12.44 59.097 12.54V14.76H64.362V15.855H52.527V14.76H57.762V12.525C56.482 12.415 55.462 12.035 54.702 11.385C53.942 10.735 53.562 9.905 53.562 8.895C53.562 7.805 54.007 6.925 54.897 6.255C55.797 5.585 56.977 5.25 58.437 5.25C59.917 5.25 61.102 5.585 61.992 6.255C62.882 6.915 63.327 7.795 63.327 8.895ZM60.987 10.725C61.637 10.255 61.962 9.645 61.962 8.895C61.962 8.145 61.637 7.535 60.987 7.065C60.347 6.595 59.497 6.36 58.437 6.36C57.387 6.36 56.537 6.595 55.887 7.065C55.247 7.535 54.927 8.145 54.927 8.895C54.927 9.645 55.247 10.255 55.887 10.725C56.537 11.195 57.387 11.43 58.437 11.43C59.487 11.43 60.337 11.195 60.987 10.725ZM77.996 16.905H76.736V12.375H74.756V11.295H76.736V9.09H75.056V8.01H76.736V4.74H77.996V16.905ZM80.516 17.55H79.241V4.44H80.516V17.55ZM74.951 6.015C74.931 7.955 74.526 9.645 73.736 11.085C72.946 12.515 71.741 13.77 70.121 14.85L69.221 13.875C70.541 13.105 71.576 12.13 72.326 10.95C73.076 9.76 73.511 8.48 73.631 7.11H69.791V6.015H74.951ZM92.0845 13.155C92.8645 13.605 93.2545 14.225 93.2545 15.015C93.2545 15.805 92.8695 16.425 92.0995 16.875C91.3295 17.325 90.2395 17.55 88.8295 17.55C87.4395 17.55 86.3545 17.325 85.5745 16.875C84.8045 16.425 84.4195 15.805 84.4195 15.015C84.4195 14.225 84.8045 13.605 85.5745 13.155C86.3545 12.695 87.4395 12.465 88.8295 12.465C90.2295 12.465 91.3145 12.695 92.0845 13.155ZM82.7245 6.585V5.505H89.8945V6.585H87.0295V7.02C87.0295 7.89 87.3495 8.68 87.9895 9.39C88.6295 10.09 89.3545 10.565 90.1645 10.815L89.4295 11.88C88.8295 11.64 88.2345 11.26 87.6445 10.74C87.0545 10.21 86.6295 9.655 86.3695 9.075C86.1695 9.685 85.7445 10.295 85.0945 10.905C84.4445 11.515 83.7695 11.965 83.0695 12.255L82.3195 11.205C83.2195 10.885 84.0045 10.335 84.6745 9.555C85.3445 8.765 85.6795 7.93 85.6795 7.05V6.585H82.7245ZM88.8295 13.56C87.8695 13.56 87.1195 13.69 86.5795 13.95C86.0395 14.2 85.7695 14.555 85.7695 15.015C85.7695 15.475 86.0395 15.835 86.5795 16.095C87.1195 16.345 87.8695 16.47 88.8295 16.47C89.7995 16.47 90.5545 16.345 91.0945 16.095C91.6345 15.835 91.9045 15.475 91.9045 15.015C91.9045 14.555 91.6345 14.2 91.0945 13.95C90.5545 13.69 89.7995 13.56 88.8295 13.56ZM91.8445 8.835H89.3995V7.74H91.8445V4.44H93.1795V12.57H91.8445V8.835ZM107.238 15.78H95.403V14.7H107.238V15.78ZM106.053 8.955C106.053 9.975 105.618 10.8 104.748 11.43C103.878 12.05 102.733 12.36 101.313 12.36C99.903 12.36 98.763 12.05 97.893 11.43C97.033 10.8 96.603 9.975 96.603 8.955C96.603 7.945 97.033 7.125 97.893 6.495C98.763 5.865 99.903 5.55 101.313 5.55C102.733 5.55 103.878 5.865 104.748 6.495C105.618 7.125 106.053 7.945 106.053 8.955ZM104.703 8.955C104.703 8.295 104.393 7.76 103.773 7.35C103.153 6.93 102.333 6.72 101.313 6.72C100.303 6.72 99.488 6.93 98.868 7.35C98.258 7.76 97.953 8.295 97.953 8.955C97.953 9.625 98.258 10.165 98.868 10.575C99.488 10.985 100.303 11.19 101.313 11.19C102.333 11.19 103.153 10.985 103.773 10.575C104.393 10.165 104.703 9.625 104.703 8.955ZM120.217 15.885H108.382V14.805H113.602V12.735H109.807V8.52H117.427V6.6H109.777V5.52H118.747V9.6H111.127V11.655H119.107V12.735H114.937V14.805H120.217V15.885ZM137.135 15.885H125.3V14.805H130.52V12.735H126.725V8.52H134.345V6.6H126.695V5.52H135.665V9.6H128.045V11.655H136.025V12.735H131.855V14.805H137.135V15.885ZM150.114 15.645H138.279V14.565H150.114V15.645ZM148.539 5.925C148.539 9.275 148.334 11.84 147.924 13.62L146.634 13.455C146.794 12.855 146.924 11.895 147.024 10.575C147.134 9.245 147.189 8.05 147.189 6.99H139.509V5.925H148.539ZM162.013 13.965H160.678V4.44H162.013V13.965ZM162.313 17.145H153.388V13.065H154.723V16.08H162.313V17.145ZM152.548 6.27C153.208 5.64 154.043 5.325 155.053 5.325C156.063 5.325 156.898 5.635 157.558 6.255C158.228 6.875 158.563 7.655 158.563 8.595C158.563 9.535 158.233 10.305 157.573 10.905C156.913 11.495 156.073 11.79 155.053 11.79C154.043 11.79 153.208 11.495 152.548 10.905C151.888 10.305 151.558 9.54 151.558 8.61C151.558 7.67 151.888 6.89 152.548 6.27ZM155.053 6.465C154.443 6.465 153.938 6.665 153.538 7.065C153.148 7.465 152.953 7.97 152.953 8.58C152.953 9.18 153.148 9.68 153.538 10.08C153.938 10.48 154.443 10.68 155.053 10.68C155.693 10.68 156.203 10.485 156.583 10.095C156.963 9.705 157.153 9.205 157.153 8.595C157.153 7.965 156.963 7.455 156.583 7.065C156.203 6.665 155.693 6.465 155.053 6.465Z" fill="black"/>
<defs>
<clipPath id="clip0_175_142">
<rect width="18" height="18" fill="white" transform="translate(0 0.5)"/>
</clipPath>
</defs>
</svg>
