<svg width="23" height="21" viewBox="0 0 23 21" fill="none" xmlns="http://www.w3.org/2000/svg">
<path d="M6.20241 18.2439L6.04309 17.511L6.20241 18.2439ZM6.52943 18.2824L6.20979 18.9609L6.52943 18.2824ZM1.17248 18.6097L0.440837 18.4448L1.17248 18.6097ZM2.03722 14.1739L1.38041 14.536L2.03722 14.1739ZM21.25 10.1875C21.25 14.7565 16.982 18.625 11.5 18.625V20.125C17.616 20.125 22.75 15.7668 22.75 10.1875H21.25ZM11.5 1.75C16.982 1.75 21.25 5.61854 21.25 10.1875H22.75C22.75 4.60823 17.616 0.25 11.5 0.25V1.75ZM1.75 10.1875C1.75 5.61854 6.01802 1.75 11.5 1.75V0.25C5.384 0.25 0.25 4.60823 0.25 10.1875H1.75ZM2.69404 13.8119C2.08731 12.7112 1.75 11.4829 1.75 10.1875H0.25C0.25 11.7489 0.657754 13.2251 1.38041 14.536L2.69404 13.8119ZM1.90412 18.7747L2.82237 14.7011L1.35909 14.3712L0.440837 18.4448L1.90412 18.7747ZM6.04309 17.511L1.60713 18.4754L1.92578 19.9411L6.36173 18.9768L6.04309 17.511ZM11.5 18.625C9.81185 18.625 8.22837 18.2537 6.84907 17.6039L6.20979 18.9609C7.78979 19.7052 9.59164 20.125 11.5 20.125V18.625ZM6.36173 18.9768C6.30467 18.9892 6.25151 18.9805 6.20979 18.9609L6.84907 17.6039C6.60336 17.4881 6.32051 17.4507 6.04309 17.511L6.36173 18.9768ZM0.440837 18.4448C0.239836 19.3365 1.03258 20.1353 1.92578 19.9411L1.60713 18.4754C1.78577 18.4365 1.94432 18.5963 1.90412 18.7747L0.440837 18.4448ZM1.38041 14.536C1.3571 14.4937 1.34457 14.4356 1.35909 14.3712L2.82237 14.7011C2.89237 14.3905 2.83913 14.0751 2.69404 13.8119L1.38041 14.536Z" fill="#767A7A"/>
</svg>
