<svg width="158" height="43" viewBox="0 0 158 43" fill="none" xmlns="http://www.w3.org/2000/svg">
<g clip-path="url(#clip0_669_10175)">
<path d="M154.84 0.5H3.16C1.41478 0.5 0 1.9103 0 3.65V39.35C0 41.0897 1.41478 42.5 3.16 42.5H154.84C156.585 42.5 158 41.0897 158 39.35V3.65C158 1.9103 156.585 0.5 154.84 0.5Z" fill="#03C75A"/>
<path d="M36.0346 21.9412L31.3051 15.2002H27.3867V27.8002H31.4947V21.0592L36.2137 27.8002H40.132V15.2002H36.0346V21.9412Z" fill="white"/>
<path d="M51.4763 23.8836V15.2421H52.7719V22.7496H53.2565C54.0675 22.7496 54.8049 22.6971 55.479 22.5816C56.1531 22.4661 56.7009 22.3611 57.1433 22.2666V23.3481C56.9115 23.4216 56.6271 23.4846 56.3217 23.5476C56.0057 23.6106 55.6686 23.6736 55.3105 23.7156C54.9523 23.7576 54.5837 23.8101 54.215 23.8311C53.8463 23.8626 53.4777 23.8731 53.1195 23.8731H51.4869L51.4763 23.8836ZM58.0386 14.3811H59.2921V27.3171H58.0386V19.6101H55.1209V18.5076H58.0386V14.3811ZM62.2941 27.6636H61.0301V14.2446H62.2941V27.6636Z" fill="white"/>
<path d="M70.9104 19.7989C70.9104 20.5864 70.8262 21.2794 70.6471 21.8779C70.468 22.4764 70.2258 22.9804 69.9203 23.3899C69.6148 23.7889 69.2462 24.0934 68.8143 24.3034C68.393 24.5134 67.94 24.6079 67.4555 24.6079C66.971 24.6079 66.518 24.5029 66.1072 24.3034C65.6859 24.0934 65.3172 23.7889 65.0012 23.3899C64.6852 22.9909 64.4324 22.4869 64.2534 21.8779C64.0743 21.2689 63.9795 20.5759 63.9795 19.7989C63.9795 19.0219 64.0743 18.3184 64.2534 17.7199C64.4324 17.1214 64.6852 16.6174 65.0012 16.2184C65.3172 15.8194 65.6859 15.5149 66.1072 15.3049C66.5286 15.0949 66.9815 15.0004 67.4555 15.0004C67.9295 15.0004 68.393 15.1054 68.8143 15.3049C69.2356 15.5044 69.6043 15.8194 69.9203 16.2184C70.2258 16.6174 70.4786 17.1214 70.6471 17.7199C70.8262 18.3184 70.9104 19.0114 70.9104 19.7989ZM69.6148 19.7989C69.6148 19.2529 69.5622 18.7489 69.4674 18.2974C69.3726 17.8459 69.2251 17.4574 69.046 17.1424C68.867 16.8169 68.6352 16.5754 68.3719 16.3969C68.098 16.2184 67.7926 16.1344 67.445 16.1344C67.0974 16.1344 66.7919 16.2184 66.518 16.3969C66.2442 16.5754 66.023 16.8169 65.8439 17.1424C65.6648 17.4679 65.5174 17.8564 65.4226 18.2974C65.3278 18.7489 65.2751 19.2424 65.2751 19.7989C65.2751 20.3554 65.3278 20.8489 65.4226 21.3004C65.5174 21.7519 65.6648 22.1404 65.8439 22.4554C66.023 22.7809 66.2547 23.0329 66.518 23.2114C66.7919 23.3899 67.0974 23.4844 67.445 23.4844C67.7926 23.4844 68.098 23.3899 68.3719 23.2114C68.6458 23.0329 68.867 22.7809 69.046 22.4554C69.2251 22.1299 69.3726 21.7414 69.4674 21.3004C69.5622 20.8489 69.6148 20.3554 69.6148 19.7989ZM73.449 14.2339H74.713V27.6529H73.449V14.2339Z" fill="white"/>
<path d="M82.9288 18.9591H86.0888V14.2446H87.3528V27.6636H86.0888V20.0616H82.9288V23.9991H76.9143V15.2526H78.231V18.5706H81.6859V15.2526H82.9394V18.9591H82.9288ZM81.6859 19.6521H78.2099V22.9281H81.6859V19.6521Z" fill="white"/>
<path d="M94.305 22.2977V18.2447H101.457V16.3022H94.2944V15.1997H102.732V19.2842H95.5795V21.2267H103.174V22.2977H99.1819V24.6917H104.786V25.7627H92.251V24.6917H97.8547V22.2977H94.3155H94.305Z" fill="white"/>
<path d="M114.139 16.5754H106.797V15.4414H115.435C115.414 16.1659 115.382 16.9219 115.329 17.7199C115.277 18.5074 115.203 19.3054 115.129 20.0929C115.045 20.8909 114.95 21.6679 114.845 22.4239C114.74 23.1799 114.634 23.8834 114.529 24.5344H117.405V25.6054H104.88V24.5344H113.223C113.465 23.3269 113.676 22.0354 113.844 20.6599C114.013 19.2844 114.108 17.9194 114.139 16.5859V16.5754Z" fill="white"/>
<path d="M117.994 18.2344C117.994 17.7409 118.079 17.2894 118.258 16.8694C118.437 16.4494 118.679 16.0819 118.995 15.7774C119.311 15.4729 119.68 15.2314 120.101 15.0634C120.522 14.8954 120.986 14.8009 121.481 14.8009C121.976 14.8009 122.45 14.8849 122.882 15.0634C123.314 15.2314 123.682 15.4729 123.998 15.7774C124.314 16.0819 124.557 16.4389 124.736 16.8694C124.915 17.2894 124.999 17.7514 124.999 18.2344C124.999 18.7174 124.915 19.1584 124.736 19.5679C124.557 19.9774 124.314 20.3344 123.998 20.6284C123.682 20.9329 123.314 21.1639 122.882 21.3319C122.45 21.4999 121.987 21.5944 121.481 21.5944C120.975 21.5944 120.522 21.5104 120.101 21.3319C119.68 21.1534 119.311 20.9224 118.995 20.6284C118.679 20.3344 118.437 19.9774 118.258 19.5679C118.079 19.1584 117.994 18.7069 117.994 18.2344ZM119.343 18.2239C119.343 18.5494 119.395 18.8434 119.501 19.1269C119.606 19.4104 119.753 19.6414 119.943 19.8409C120.133 20.0404 120.364 20.1874 120.628 20.3029C120.891 20.4184 121.186 20.4709 121.513 20.4709C121.839 20.4709 122.134 20.4184 122.397 20.3029C122.661 20.1874 122.892 20.0404 123.082 19.8409C123.272 19.6414 123.419 19.4104 123.535 19.1269C123.651 18.8434 123.693 18.5494 123.693 18.2239C123.693 17.8774 123.64 17.5729 123.535 17.2894C123.43 17.0059 123.282 16.7644 123.082 16.5544C122.882 16.3444 122.661 16.1869 122.397 16.0819C122.134 15.9664 121.839 15.9139 121.513 15.9139C121.186 15.9139 120.891 15.9664 120.628 16.0819C120.364 16.1974 120.133 16.3549 119.943 16.5544C119.753 16.7644 119.606 17.0059 119.501 17.2894C119.395 17.5729 119.343 17.8879 119.343 18.2239ZM129.023 27.3904H120.312V23.2324H121.607V26.2879H129.023V27.3904ZM128.707 23.9359H127.453V14.2339H128.707V23.9359Z" fill="white"/>
</g>
<defs>
<clipPath id="clip0_669_10175">
<rect width="158" height="42" fill="white" transform="translate(0 0.5)"/>
</clipPath>
</defs>
</svg>
