<svg width="26" height="29" viewBox="0 0 26 29" fill="none" xmlns="http://www.w3.org/2000/svg">
<path d="M14.1357 4.12151L20.5815 10.5403M1 28H25M1.51742 21.4105L2.238 16.4118C2.27677 16.0852 2.42819 15.7823 2.66626 15.555L16.7929 1.45067C16.9745 1.26578 17.2009 1.13087 17.4501 1.05902C17.6992 0.987169 17.9628 0.980809 18.2151 1.04056C19.5184 1.38604 20.7035 2.07808 21.6441 3.04296C22.6168 3.98004 23.316 5.16356 23.667 6.46689C23.7211 6.71917 23.7118 6.98091 23.6399 7.22872C23.5679 7.47652 23.4357 7.70268 23.2548 7.88696L9.1296 21.9913C8.88606 22.2159 8.58239 22.365 8.25554 22.4204L3.23191 23.1385C2.99791 23.17 2.75976 23.1469 2.53621 23.071C2.31267 22.9951 2.10982 22.8684 1.94363 22.7009C1.77744 22.5334 1.65245 22.3297 1.57849 22.1057C1.50453 21.8818 1.48363 21.6438 1.51742 21.4105Z" stroke="white" stroke-width="1.5" stroke-linecap="round" stroke-linejoin="round"/>
</svg>
