<svg width="20" height="20" viewBox="0 0 20 20" fill="none" xmlns="http://www.w3.org/2000/svg">
  <rect x="0.75" y="0.75" width="18.5" height="18.5" stroke="#A8A8A8" stroke-width="1.5" rx="4.8" ry="4.8"/>
  <path d="M17.0534 6.27941C17.0534 6.57392 16.9365 6.85637 16.7282 7.06463C16.5199 7.27288 16.2375 7.38988 15.943 7.38988C15.6485 7.38988 15.366 7.27288 15.1578 7.06463C14.9495 6.85637 14.8325 6.57392 14.8325 6.27941C14.8325 5.9849 14.9495 5.70245 15.1578 5.49419C15.366 5.28594 15.6485 5.16895 15.943 5.16895C16.2375 5.16895 16.5199 5.28594 16.7282 5.49419C16.9365 5.70245 17.0534 5.9849 17.0534 6.27941Z" stroke="#A8A8A8" stroke-width="1.5"/>
  <path d="M17.5039 17.2049L18.0748 17.7187C18.0201 17.7819 17.963 17.8433 17.9032 17.9032C17.2333 18.573 16.3577 18.9106 15.0965 19.0799L15.0962 19.08C13.8451 19.2484 12.2212 19.25 10.053 19.25H9.94698C7.77887 19.25 6.1549 19.2484 4.90281 19.08L4.90266 19.0799C3.64297 18.9107 2.76694 18.5724 2.09684 17.9032C1.50234 17.3087 1.16914 16.5519 0.984103 15.5065L0.983883 15.5053C0.832395 14.6576 0.778953 13.6235 0.760161 12.3376L1.88927 11.3495L2.82043 10.5346L2.82051 10.5346C3.08577 10.3024 3.42938 10.1797 3.78172 10.1913C4.13403 10.203 4.46873 10.3481 4.71804 10.5973C4.71807 10.5973 4.7181 10.5974 4.71813 10.5974L8.70874 14.588L8.70879 14.5881C9.14331 15.0225 9.71715 15.2897 10.3293 15.3427C10.9415 15.3957 11.5527 15.2311 12.0554 14.8778L12.0562 14.8773L12.3326 14.6825C12.3327 14.6824 12.3328 14.6823 12.3329 14.6823C12.7108 14.4168 13.1676 14.2874 13.6287 14.3152C14.0898 14.343 14.5279 14.5264 14.8712 14.8355L14.8713 14.8356L17.5039 17.2049Z" stroke="#A8A8A8" stroke-width="1.5"/>
</svg>


