<svg width="292" height="185" viewBox="0 0 292 185" fill="none" xmlns="http://www.w3.org/2000/svg">
<rect width="292" height="185" rx="5" fill="#F9F9F9"/>
<mask id="path-2-inside-1_2234_12992" fill="white">
<path d="M229.321 104.63C228.502 106.449 227.748 108.218 226.912 109.943C226.417 110.963 225.819 111.931 225.216 112.893C224.629 113.833 223.712 114.243 222.662 114.568C220.065 115.37 217.381 115.153 214.743 115.358C209.7 115.749 204.633 115.775 199.617 116.568C194.824 117.325 189.976 117.431 185.137 117.636C181.694 117.783 178.259 118.079 174.818 118.293C171.399 118.505 167.983 118.732 164.562 118.884C163.104 118.949 161.64 118.836 160.177 118.807C159.899 118.802 159.62 118.807 159.247 118.807C159.334 118.987 159.36 119.086 159.418 119.161C161.943 122.402 164.459 125.648 167.003 128.872C167.596 129.627 168.262 130.328 168.925 131.024C170.859 133.061 172.555 135.273 174.037 137.661C174.809 138.902 175.659 140.107 176.594 141.228C177.997 142.907 179.085 144.765 179.998 146.734C181.49 149.954 180.829 153.122 178.174 155.477C175.882 157.508 173.216 158.328 170.174 157.882C167.892 157.547 165.672 156.993 163.63 155.894C156.65 152.142 149.587 148.541 142.824 144.397C140.909 143.223 139.057 141.934 137.269 140.575C132.472 136.924 127.715 133.217 122.962 129.506C121.809 128.607 120.745 127.595 119.616 126.663C119.361 126.453 119.015 126.357 118.71 126.207C118.691 126.198 118.667 126.2 118.645 126.193C113.955 124.819 109.117 124.973 104.312 124.761C103.92 124.744 103.526 124.742 103.135 124.713C102.431 124.663 101.715 124.482 101.287 125.337C101.184 125.542 100.823 125.663 100.559 125.73C100.203 125.819 99.8215 125.884 99.4611 125.851C95.6651 125.501 91.874 125.894 88.0828 125.894C85.9278 125.894 83.7727 125.612 81.6153 125.595C76.7262 125.557 71.8371 125.593 66.948 125.614C62.8109 125.634 58.7194 125.072 54.6399 124.516C52.0524 124.161 49.8469 123.007 48.3502 120.691C47.0432 118.669 46.6588 116.554 47.3123 114.242C47.9898 111.842 49.155 109.707 50.8536 107.885C52.36 106.271 53.9768 104.755 55.3991 103.073C56.4634 101.815 57.3283 100.381 58.2149 98.9811C58.4695 98.5811 58.5392 98.0341 58.5993 97.5425C58.7266 96.5014 58.7698 95.4483 58.8852 94.4049C58.9596 93.7325 59.0485 93.0578 59.6347 92.5758C59.7621 92.4722 59.7885 92.2216 59.8245 92.0312C60.8528 86.5489 63.3082 81.6762 66.7197 77.3843C70.7007 72.3767 75.5201 68.4391 81.8171 66.4389C87.4702 64.6436 93.205 63.3978 99.0839 62.8652C102.666 62.5423 106.277 62.5664 109.874 62.4001C110.22 62.3832 110.652 62.2121 110.88 61.9639C115.152 57.2985 120.305 53.7223 125.408 50.0763C126.895 49.0136 128.322 47.8593 129.733 46.6905C134.944 42.3673 140.116 37.9959 145.344 33.6944C147.545 31.8846 150.111 30.6869 152.814 29.8411C156.031 28.8337 159.322 28.1686 162.7 28.0096C165.859 27.8602 168.43 29.4627 169.71 32.3738C171.075 35.4776 171.241 38.6682 170.14 41.8492C169.458 43.8228 168.612 45.7603 167.639 47.6086C166.337 50.0835 164.85 52.4596 163.423 54.867C163.034 55.5249 162.621 56.1731 162.152 56.7756C159.911 59.6553 157.643 62.5134 155.396 65.3907C154.81 66.1425 154.27 66.9305 153.621 67.8246C154.361 67.9427 154.94 67.9933 155.5 68.1306C159.646 69.1404 163.889 69.5356 168.11 70.0537C169.989 70.285 171.904 70.2031 173.795 70.3621C176.86 70.6176 179.914 71.061 182.982 71.2248C185.891 71.3815 188.822 71.7285 191.732 71.208C195.513 70.5308 198.913 68.9476 202.058 66.7691C202.507 66.4582 202.937 66.1136 203.41 65.8461C205.061 64.9111 206.438 63.6701 207.769 62.3158C210.104 59.9421 212.821 58.0986 216.014 57.0166C218.248 56.2599 220.48 55.5369 222.815 55.1345C225.208 54.7224 227.157 55.4743 228.848 57.0913C231.234 59.3734 232.63 62.1953 232.944 65.4606C233.278 68.9187 233.415 72.3984 233.607 75.8686C233.788 79.1363 233.49 82.3847 233.081 85.6211C233.019 86.1151 233.185 86.3055 233.612 86.5561C234.89 87.3032 236.125 88.1273 237.343 88.9707C238.364 89.6792 239.313 90.4937 240.339 91.1926C241.747 92.1493 242.96 93.294 243.994 94.641C245.877 97.0942 246.331 99.9041 245.783 102.849C245.173 106.133 242.809 107.76 239.506 107.375C236.541 107.028 233.677 106.28 230.902 105.186C230.362 104.974 229.807 104.794 229.324 104.623L229.321 104.63ZM114.347 122.2L114.402 122.041C114.229 121.879 114.052 121.723 113.881 121.559C112.134 119.877 110.354 118.228 108.648 116.503C106.882 114.715 105.6 112.611 105.069 110.122C104.432 107.155 106.135 104.837 109.129 104.543C109.91 104.466 110.698 104.413 111.481 104.435C116.843 104.584 122.208 104.557 127.544 105.331C133.123 106.138 138.759 106.285 144.386 106.483C144.592 106.49 144.866 106.406 145.005 106.264C145.94 105.302 146.889 105.237 147.848 106.165C148.376 106.678 148.837 107.264 149.318 107.828C150.039 108.676 150.704 109.572 151.468 110.375C153.095 112.081 154.796 113.717 156.415 115.431C156.871 115.915 157.309 116.086 157.948 116.026C161.724 115.667 165.501 115.312 169.283 115.009C171.587 114.823 173.9 114.753 176.207 114.597C178.208 114.462 180.205 114.211 182.208 114.127C187.809 113.893 193.423 113.828 198.975 112.973C204.165 112.172 209.4 112.083 214.62 111.7C216.956 111.529 219.329 111.753 221.641 111.086C222.525 110.83 222.772 110.225 223.202 109.548C222.964 109.51 222.835 109.502 222.712 109.469C222.457 109.394 222.205 109.302 221.953 109.218C222.1 108.994 222.229 108.755 222.395 108.546C222.703 108.158 223.061 107.806 223.344 107.401C223.627 106.996 223.822 106.526 224.098 106.114C224.644 105.307 225.218 104.521 225.814 103.68C225.622 103.606 225.528 103.56 225.427 103.528C220.324 101.943 215.473 99.8125 210.82 97.1569C208.679 95.9351 206.868 94.3061 204.813 92.9951C204.203 92.6047 203.913 91.9782 204.023 91.2384C204.136 90.4913 204.595 90.0214 205.316 89.831C207.569 89.2334 209.801 88.5153 212.086 88.0888C215.127 87.5224 218.203 87.1345 221.275 86.7706C224.005 86.4453 226.746 86.2404 229.485 86.0211C229.982 85.9802 229.956 85.691 230.001 85.3681C230.556 81.4328 230.648 77.4759 230.496 73.5142C230.398 70.9574 230.27 68.3981 230.03 65.8534C229.783 63.2146 228.68 60.9373 226.72 59.1155C225.775 58.2383 224.687 57.7058 223.378 58.0672C221.34 58.6263 219.303 59.1926 217.297 59.8529C214.303 60.8385 211.829 62.6579 209.717 64.9569C208.509 66.2727 207.204 67.439 205.69 68.3837C205.116 68.7403 204.573 69.1476 204.025 69.5476C200.417 72.1864 196.491 74.1407 192.061 74.9046C188.7 75.4854 185.31 75.1553 181.939 74.9552C178.717 74.7625 175.51 74.2492 172.288 74.1552C168.017 74.0323 163.817 73.3672 159.601 72.8322C157.052 72.5093 154.529 71.9647 152.002 71.4875C151.266 71.3477 150.728 71.461 150.147 72.0177C149.128 72.9937 147.545 72.543 147.24 71.2273C147.112 70.6826 146.853 70.5284 146.382 70.4706C144.65 70.2633 142.91 70.0874 141.185 69.8247C138.6 69.4295 136.032 68.9355 133.447 68.5499C130.494 68.1114 127.53 67.7523 124.57 67.3499C122.626 67.0848 120.69 66.6438 118.736 66.5643C114.076 66.3739 109.42 66.2148 104.744 66.3353C96.7078 66.5426 88.9117 67.8559 81.3366 70.5501C79.4867 71.208 77.7881 72.1165 76.1784 73.2226C75.9958 73.3479 75.83 73.5021 75.5514 73.7286C76.1808 73.8082 76.6589 73.8323 77.1202 73.9311C78.42 74.2106 79.7029 74.5793 81.0099 74.801C82.1462 74.9938 83.1313 75.389 83.9914 76.1698C84.4214 76.5602 84.9692 76.8204 85.4617 77.1434C86.9561 78.1266 88.6018 78.9411 89.916 80.1267C92.9743 82.8908 94.4927 86.3537 93.9089 90.5757C93.5293 93.3156 92.2176 95.3592 89.6228 96.4821C86.3194 97.9112 82.8742 98.6992 79.28 98.8076C76.5964 98.8871 73.9056 98.8221 71.2316 99.0052C68.8388 99.1691 66.4795 99.0149 64.1154 98.7498C63.0463 98.6293 62.006 98.4341 61.254 97.3882C61.1844 98.1449 61.1964 98.7859 61.057 99.3908C60.5165 101.726 59.3296 103.728 57.7488 105.495C56.3505 107.059 54.8994 108.575 53.4795 110.119C52.2783 111.428 51.4566 112.956 50.8608 114.623C50.2481 116.334 50.5773 117.836 51.7377 119.204C52.3119 119.881 53.0134 120.383 53.8567 120.551C55.3679 120.855 56.8959 121.098 58.4287 121.27C60.7255 121.525 63.0271 121.819 65.3335 121.874C70.1553 121.99 74.9796 121.951 79.8014 121.997C81.327 122.012 82.8526 122.113 84.3782 122.154C86.8167 122.219 89.2577 122.32 91.6962 122.308C93.6975 122.299 95.694 122.125 97.6953 122.067C99.132 122.026 100.573 122.098 102.01 122.048C105.89 121.911 109.77 121.66 113.643 122.166C113.871 122.195 114.104 122.19 114.337 122.202L114.347 122.2ZM117.341 107.803C115.303 107.803 113.537 107.794 111.769 107.808C110.919 107.816 110.071 107.869 109.22 107.9C108.629 107.922 108.317 108.278 108.334 108.823C108.35 109.336 108.442 109.869 108.617 110.351C109.297 112.23 110.565 113.695 111.995 115.043C117.55 120.272 123.203 125.383 129.295 129.988C132.745 132.596 136.147 135.266 139.609 137.859C141.181 139.035 142.795 140.165 144.467 141.189C151.17 145.3 158.159 148.898 165.057 152.662C166.863 153.648 168.824 154.137 170.842 154.453C172.913 154.776 174.684 154.156 176.19 152.747C177.624 151.404 177.922 149.891 177.101 148.103C176.341 146.45 175.431 144.893 174.246 143.49C173.235 142.29 172.267 141.035 171.419 139.717C169.85 137.276 168.033 135.054 166.044 132.955C163.759 130.542 161.655 127.981 159.711 125.272C157.979 122.86 156.055 120.588 154.188 118.274C153.779 117.768 153.263 117.349 152.785 116.901C150.454 114.717 148.234 112.433 146.377 109.823C146.014 109.314 145.623 109.078 144.972 109.1C139.297 109.271 133.627 109.172 127.967 108.681C124.339 108.367 120.709 108.085 117.341 107.808V107.803ZM113.994 62.3929L114.148 62.5977C114.249 62.6146 114.352 62.6483 114.45 62.6435C118.801 62.4266 123.068 63.27 127.335 63.846C131.974 64.4701 136.642 64.9328 141.234 65.9618C143.843 66.5474 146.531 66.786 149.191 67.1354C149.428 67.1667 149.796 66.9306 149.952 66.7089C150.618 65.7618 151.173 64.7352 151.869 63.8122C153.438 61.7398 154.976 59.6312 156.691 57.6817C160.209 53.6862 162.659 49.016 165.287 44.4542C166.287 42.7191 166.911 40.8274 167.267 38.849C167.611 36.9428 167.286 35.121 166.438 33.4293C165.751 32.0581 164.634 31.1833 162.967 31.3616C161.513 31.5159 160.055 31.6219 158.613 31.846C153.7 32.6148 149.289 34.4848 145.479 37.7669C140.614 41.9576 135.686 46.076 130.78 50.2185C130.196 50.7125 129.605 51.1993 128.978 51.6354C125.735 53.891 122.453 56.0984 119.234 58.3902C117.617 59.5396 116.106 60.8385 114.544 62.0627C114.378 62.1929 114.179 62.282 113.996 62.388L113.994 62.3929ZM61.6889 95.7857C62.4793 95.7857 63.1352 95.7375 63.7815 95.7929C67.736 96.1351 71.6713 95.6724 75.6138 95.5399C78.0307 95.4604 80.4549 95.3688 82.8502 95.07C84.8106 94.8266 86.7615 94.3808 88.5705 93.494C89.4859 93.0457 90.2547 92.4577 90.5694 91.4456C91.7443 87.6598 90.161 84.3367 87.2876 82.2329C85.8653 81.1919 84.2436 80.4231 82.8165 79.3869C81.7666 78.623 80.6591 78.2205 79.4242 77.8735C77.2475 77.2638 75.054 77.0566 72.8269 77.0662C72.3176 77.0662 71.6665 77.1916 71.3253 77.5169C70.4004 78.4013 69.4946 79.3532 68.7835 80.4111C67.5582 82.2329 66.429 84.1294 65.3647 86.0525C64.6608 87.3224 64.065 88.6671 63.5604 90.0311C62.8757 91.8914 62.3256 93.8 61.6865 95.7833L61.6889 95.7857ZM209.316 91.7806C209.679 92.089 209.897 92.3397 210.169 92.4987C212.28 93.7277 214.337 95.0772 216.535 96.1207C220.091 97.8075 223.639 99.5185 227.512 100.473C229.696 101.01 231.746 102.068 233.903 102.74C235.916 103.367 237.973 103.878 240.041 104.288C241.687 104.615 242.533 103.943 242.908 102.29C242.994 101.911 243.013 101.511 243.028 101.121C243.143 98.304 241.8 96.2002 239.669 94.5712C237.557 92.9566 235.359 91.4528 233.197 89.9057C232.968 89.7419 232.661 89.6551 232.493 89.4503C231.666 88.443 230.597 88.3779 229.456 88.6237C228.545 88.8213 227.659 89.1732 226.741 89.2864C224.752 89.5346 222.751 89.6961 220.749 89.8503C216.937 90.1443 213.181 90.7685 209.313 91.7806H209.316Z"/>
</mask>
<path d="M229.321 104.63C228.502 106.449 227.748 108.218 226.912 109.943C226.417 110.963 225.819 111.931 225.216 112.893C224.629 113.833 223.712 114.243 222.662 114.568C220.065 115.37 217.381 115.153 214.743 115.358C209.7 115.749 204.633 115.775 199.617 116.568C194.824 117.325 189.976 117.431 185.137 117.636C181.694 117.783 178.259 118.079 174.818 118.293C171.399 118.505 167.983 118.732 164.562 118.884C163.104 118.949 161.64 118.836 160.177 118.807C159.899 118.802 159.62 118.807 159.247 118.807C159.334 118.987 159.36 119.086 159.418 119.161C161.943 122.402 164.459 125.648 167.003 128.872C167.596 129.627 168.262 130.328 168.925 131.024C170.859 133.061 172.555 135.273 174.037 137.661C174.809 138.902 175.659 140.107 176.594 141.228C177.997 142.907 179.085 144.765 179.998 146.734C181.49 149.954 180.829 153.122 178.174 155.477C175.882 157.508 173.216 158.328 170.174 157.882C167.892 157.547 165.672 156.993 163.63 155.894C156.65 152.142 149.587 148.541 142.824 144.397C140.909 143.223 139.057 141.934 137.269 140.575C132.472 136.924 127.715 133.217 122.962 129.506C121.809 128.607 120.745 127.595 119.616 126.663C119.361 126.453 119.015 126.357 118.71 126.207C118.691 126.198 118.667 126.2 118.645 126.193C113.955 124.819 109.117 124.973 104.312 124.761C103.92 124.744 103.526 124.742 103.135 124.713C102.431 124.663 101.715 124.482 101.287 125.337C101.184 125.542 100.823 125.663 100.559 125.73C100.203 125.819 99.8215 125.884 99.4611 125.851C95.6651 125.501 91.874 125.894 88.0828 125.894C85.9278 125.894 83.7727 125.612 81.6153 125.595C76.7262 125.557 71.8371 125.593 66.948 125.614C62.8109 125.634 58.7194 125.072 54.6399 124.516C52.0524 124.161 49.8469 123.007 48.3502 120.691C47.0432 118.669 46.6588 116.554 47.3123 114.242C47.9898 111.842 49.155 109.707 50.8536 107.885C52.36 106.271 53.9768 104.755 55.3991 103.073C56.4634 101.815 57.3283 100.381 58.2149 98.9811C58.4695 98.5811 58.5392 98.0341 58.5993 97.5425C58.7266 96.5014 58.7698 95.4483 58.8852 94.4049C58.9596 93.7325 59.0485 93.0578 59.6347 92.5758C59.7621 92.4722 59.7885 92.2216 59.8245 92.0312C60.8528 86.5489 63.3082 81.6762 66.7197 77.3843C70.7007 72.3767 75.5201 68.4391 81.8171 66.4389C87.4702 64.6436 93.205 63.3978 99.0839 62.8652C102.666 62.5423 106.277 62.5664 109.874 62.4001C110.22 62.3832 110.652 62.2121 110.88 61.9639C115.152 57.2985 120.305 53.7223 125.408 50.0763C126.895 49.0136 128.322 47.8593 129.733 46.6905C134.944 42.3673 140.116 37.9959 145.344 33.6944C147.545 31.8846 150.111 30.6869 152.814 29.8411C156.031 28.8337 159.322 28.1686 162.7 28.0096C165.859 27.8602 168.43 29.4627 169.71 32.3738C171.075 35.4776 171.241 38.6682 170.14 41.8492C169.458 43.8228 168.612 45.7603 167.639 47.6086C166.337 50.0835 164.85 52.4596 163.423 54.867C163.034 55.5249 162.621 56.1731 162.152 56.7756C159.911 59.6553 157.643 62.5134 155.396 65.3907C154.81 66.1425 154.27 66.9305 153.621 67.8246C154.361 67.9427 154.94 67.9933 155.5 68.1306C159.646 69.1404 163.889 69.5356 168.11 70.0537C169.989 70.285 171.904 70.2031 173.795 70.3621C176.86 70.6176 179.914 71.061 182.982 71.2248C185.891 71.3815 188.822 71.7285 191.732 71.208C195.513 70.5308 198.913 68.9476 202.058 66.7691C202.507 66.4582 202.937 66.1136 203.41 65.8461C205.061 64.9111 206.438 63.6701 207.769 62.3158C210.104 59.9421 212.821 58.0986 216.014 57.0166C218.248 56.2599 220.48 55.5369 222.815 55.1345C225.208 54.7224 227.157 55.4743 228.848 57.0913C231.234 59.3734 232.63 62.1953 232.944 65.4606C233.278 68.9187 233.415 72.3984 233.607 75.8686C233.788 79.1363 233.49 82.3847 233.081 85.6211C233.019 86.1151 233.185 86.3055 233.612 86.5561C234.89 87.3032 236.125 88.1273 237.343 88.9707C238.364 89.6792 239.313 90.4937 240.339 91.1926C241.747 92.1493 242.96 93.294 243.994 94.641C245.877 97.0942 246.331 99.9041 245.783 102.849C245.173 106.133 242.809 107.76 239.506 107.375C236.541 107.028 233.677 106.28 230.902 105.186C230.362 104.974 229.807 104.794 229.324 104.623L229.321 104.63ZM114.347 122.2L114.402 122.041C114.229 121.879 114.052 121.723 113.881 121.559C112.134 119.877 110.354 118.228 108.648 116.503C106.882 114.715 105.6 112.611 105.069 110.122C104.432 107.155 106.135 104.837 109.129 104.543C109.91 104.466 110.698 104.413 111.481 104.435C116.843 104.584 122.208 104.557 127.544 105.331C133.123 106.138 138.759 106.285 144.386 106.483C144.592 106.49 144.866 106.406 145.005 106.264C145.94 105.302 146.889 105.237 147.848 106.165C148.376 106.678 148.837 107.264 149.318 107.828C150.039 108.676 150.704 109.572 151.468 110.375C153.095 112.081 154.796 113.717 156.415 115.431C156.871 115.915 157.309 116.086 157.948 116.026C161.724 115.667 165.501 115.312 169.283 115.009C171.587 114.823 173.9 114.753 176.207 114.597C178.208 114.462 180.205 114.211 182.208 114.127C187.809 113.893 193.423 113.828 198.975 112.973C204.165 112.172 209.4 112.083 214.62 111.7C216.956 111.529 219.329 111.753 221.641 111.086C222.525 110.83 222.772 110.225 223.202 109.548C222.964 109.51 222.835 109.502 222.712 109.469C222.457 109.394 222.205 109.302 221.953 109.218C222.1 108.994 222.229 108.755 222.395 108.546C222.703 108.158 223.061 107.806 223.344 107.401C223.627 106.996 223.822 106.526 224.098 106.114C224.644 105.307 225.218 104.521 225.814 103.68C225.622 103.606 225.528 103.56 225.427 103.528C220.324 101.943 215.473 99.8125 210.82 97.1569C208.679 95.9351 206.868 94.3061 204.813 92.9951C204.203 92.6047 203.913 91.9782 204.023 91.2384C204.136 90.4913 204.595 90.0214 205.316 89.831C207.569 89.2334 209.801 88.5153 212.086 88.0888C215.127 87.5224 218.203 87.1345 221.275 86.7706C224.005 86.4453 226.746 86.2404 229.485 86.0211C229.982 85.9802 229.956 85.691 230.001 85.3681C230.556 81.4328 230.648 77.4759 230.496 73.5142C230.398 70.9574 230.27 68.3981 230.03 65.8534C229.783 63.2146 228.68 60.9373 226.72 59.1155C225.775 58.2383 224.687 57.7058 223.378 58.0672C221.34 58.6263 219.303 59.1926 217.297 59.8529C214.303 60.8385 211.829 62.6579 209.717 64.9569C208.509 66.2727 207.204 67.439 205.69 68.3837C205.116 68.7403 204.573 69.1476 204.025 69.5476C200.417 72.1864 196.491 74.1407 192.061 74.9046C188.7 75.4854 185.31 75.1553 181.939 74.9552C178.717 74.7625 175.51 74.2492 172.288 74.1552C168.017 74.0323 163.817 73.3672 159.601 72.8322C157.052 72.5093 154.529 71.9647 152.002 71.4875C151.266 71.3477 150.728 71.461 150.147 72.0177C149.128 72.9937 147.545 72.543 147.24 71.2273C147.112 70.6826 146.853 70.5284 146.382 70.4706C144.65 70.2633 142.91 70.0874 141.185 69.8247C138.6 69.4295 136.032 68.9355 133.447 68.5499C130.494 68.1114 127.53 67.7523 124.57 67.3499C122.626 67.0848 120.69 66.6438 118.736 66.5643C114.076 66.3739 109.42 66.2148 104.744 66.3353C96.7078 66.5426 88.9117 67.8559 81.3366 70.5501C79.4867 71.208 77.7881 72.1165 76.1784 73.2226C75.9958 73.3479 75.83 73.5021 75.5514 73.7286C76.1808 73.8082 76.6589 73.8323 77.1202 73.9311C78.42 74.2106 79.7029 74.5793 81.0099 74.801C82.1462 74.9938 83.1313 75.389 83.9914 76.1698C84.4214 76.5602 84.9692 76.8204 85.4617 77.1434C86.9561 78.1266 88.6018 78.9411 89.916 80.1267C92.9743 82.8908 94.4927 86.3537 93.9089 90.5757C93.5293 93.3156 92.2176 95.3592 89.6228 96.4821C86.3194 97.9112 82.8742 98.6992 79.28 98.8076C76.5964 98.8871 73.9056 98.8221 71.2316 99.0052C68.8388 99.1691 66.4795 99.0149 64.1154 98.7498C63.0463 98.6293 62.006 98.4341 61.254 97.3882C61.1844 98.1449 61.1964 98.7859 61.057 99.3908C60.5165 101.726 59.3296 103.728 57.7488 105.495C56.3505 107.059 54.8994 108.575 53.4795 110.119C52.2783 111.428 51.4566 112.956 50.8608 114.623C50.2481 116.334 50.5773 117.836 51.7377 119.204C52.3119 119.881 53.0134 120.383 53.8567 120.551C55.3679 120.855 56.8959 121.098 58.4287 121.27C60.7255 121.525 63.0271 121.819 65.3335 121.874C70.1553 121.99 74.9796 121.951 79.8014 121.997C81.327 122.012 82.8526 122.113 84.3782 122.154C86.8167 122.219 89.2577 122.32 91.6962 122.308C93.6975 122.299 95.694 122.125 97.6953 122.067C99.132 122.026 100.573 122.098 102.01 122.048C105.89 121.911 109.77 121.66 113.643 122.166C113.871 122.195 114.104 122.19 114.337 122.202L114.347 122.2ZM117.341 107.803C115.303 107.803 113.537 107.794 111.769 107.808C110.919 107.816 110.071 107.869 109.22 107.9C108.629 107.922 108.317 108.278 108.334 108.823C108.35 109.336 108.442 109.869 108.617 110.351C109.297 112.23 110.565 113.695 111.995 115.043C117.55 120.272 123.203 125.383 129.295 129.988C132.745 132.596 136.147 135.266 139.609 137.859C141.181 139.035 142.795 140.165 144.467 141.189C151.17 145.3 158.159 148.898 165.057 152.662C166.863 153.648 168.824 154.137 170.842 154.453C172.913 154.776 174.684 154.156 176.19 152.747C177.624 151.404 177.922 149.891 177.101 148.103C176.341 146.45 175.431 144.893 174.246 143.49C173.235 142.29 172.267 141.035 171.419 139.717C169.85 137.276 168.033 135.054 166.044 132.955C163.759 130.542 161.655 127.981 159.711 125.272C157.979 122.86 156.055 120.588 154.188 118.274C153.779 117.768 153.263 117.349 152.785 116.901C150.454 114.717 148.234 112.433 146.377 109.823C146.014 109.314 145.623 109.078 144.972 109.1C139.297 109.271 133.627 109.172 127.967 108.681C124.339 108.367 120.709 108.085 117.341 107.808V107.803ZM113.994 62.3929L114.148 62.5977C114.249 62.6146 114.352 62.6483 114.45 62.6435C118.801 62.4266 123.068 63.27 127.335 63.846C131.974 64.4701 136.642 64.9328 141.234 65.9618C143.843 66.5474 146.531 66.786 149.191 67.1354C149.428 67.1667 149.796 66.9306 149.952 66.7089C150.618 65.7618 151.173 64.7352 151.869 63.8122C153.438 61.7398 154.976 59.6312 156.691 57.6817C160.209 53.6862 162.659 49.016 165.287 44.4542C166.287 42.7191 166.911 40.8274 167.267 38.849C167.611 36.9428 167.286 35.121 166.438 33.4293C165.751 32.0581 164.634 31.1833 162.967 31.3616C161.513 31.5159 160.055 31.6219 158.613 31.846C153.7 32.6148 149.289 34.4848 145.479 37.7669C140.614 41.9576 135.686 46.076 130.78 50.2185C130.196 50.7125 129.605 51.1993 128.978 51.6354C125.735 53.891 122.453 56.0984 119.234 58.3902C117.617 59.5396 116.106 60.8385 114.544 62.0627C114.378 62.1929 114.179 62.282 113.996 62.388L113.994 62.3929ZM61.6889 95.7857C62.4793 95.7857 63.1352 95.7375 63.7815 95.7929C67.736 96.1351 71.6713 95.6724 75.6138 95.5399C78.0307 95.4604 80.4549 95.3688 82.8502 95.07C84.8106 94.8266 86.7615 94.3808 88.5705 93.494C89.4859 93.0457 90.2547 92.4577 90.5694 91.4456C91.7443 87.6598 90.161 84.3367 87.2876 82.2329C85.8653 81.1919 84.2436 80.4231 82.8165 79.3869C81.7666 78.623 80.6591 78.2205 79.4242 77.8735C77.2475 77.2638 75.054 77.0566 72.8269 77.0662C72.3176 77.0662 71.6665 77.1916 71.3253 77.5169C70.4004 78.4013 69.4946 79.3532 68.7835 80.4111C67.5582 82.2329 66.429 84.1294 65.3647 86.0525C64.6608 87.3224 64.065 88.6671 63.5604 90.0311C62.8757 91.8914 62.3256 93.8 61.6865 95.7833L61.6889 95.7857ZM209.316 91.7806C209.679 92.089 209.897 92.3397 210.169 92.4987C212.28 93.7277 214.337 95.0772 216.535 96.1207C220.091 97.8075 223.639 99.5185 227.512 100.473C229.696 101.01 231.746 102.068 233.903 102.74C235.916 103.367 237.973 103.878 240.041 104.288C241.687 104.615 242.533 103.943 242.908 102.29C242.994 101.911 243.013 101.511 243.028 101.121C243.143 98.304 241.8 96.2002 239.669 94.5712C237.557 92.9566 235.359 91.4528 233.197 89.9057C232.968 89.7419 232.661 89.6551 232.493 89.4503C231.666 88.443 230.597 88.3779 229.456 88.6237C228.545 88.8213 227.659 89.1732 226.741 89.2864C224.752 89.5346 222.751 89.6961 220.749 89.8503C216.937 90.1443 213.181 90.7685 209.313 91.7806H209.316Z" fill="#333535" stroke="#333535" stroke-width="2" mask="url(#path-2-inside-1_2234_12992)"/>
<path d="M112.328 90.918L112.328 90.9181C113.336 91.4333 114.424 91.6592 115.58 91.6754C116.94 91.6819 118.243 91.3619 119.503 90.8133C121.651 89.877 122.896 88.2084 123.477 85.9148C123.764 84.7818 123.524 83.2917 122.797 82.0324C122.075 80.782 120.915 79.8259 119.419 79.6543L119.418 79.6542C119.183 79.6266 118.924 79.6153 118.693 79.6385C118.451 79.6628 118.298 79.7194 118.222 79.7772L117.92 79.3793M112.328 90.918L110.174 87.5689C110.009 83.9783 112.194 81.114 115.569 80.4258L115.569 80.4258C115.808 80.3768 115.998 80.3431 116.173 80.3467L116.173 80.3467C116.838 80.3595 117.526 80.3087 118.223 79.7768L117.92 79.3793M112.328 90.918C110.956 90.2168 110.245 89.1107 110.174 87.569L112.328 90.918ZM117.92 79.3793C117.357 79.8082 116.81 79.8588 116.183 79.8468M117.92 79.3793C118.287 79.0997 118.962 79.0973 119.476 79.1576C122.857 79.5455 124.611 83.476 123.962 86.0376C123.349 88.457 122.014 90.2644 119.702 91.2717L116.183 79.8468M116.183 79.8468C115.945 79.8419 115.705 79.8877 115.469 79.9359L116.183 79.8468ZM119.983 81.8314L119.567 81.3164L119.185 81.8578C118.908 82.252 118.747 82.372 118.667 82.4036C118.666 82.4039 118.665 82.4043 118.664 82.4046C118.642 82.4137 118.589 82.4354 118.404 82.3207L118.404 82.3207C118.095 82.1295 117.66 81.9297 117.214 81.9229L117.213 81.9229C115.8 81.9037 114.512 82.6042 113.633 83.6246C112.754 84.645 112.248 86.0272 112.449 87.4247L112.449 87.4253C112.505 87.807 112.654 88.1232 112.894 88.3739C113.126 88.6172 113.417 88.7706 113.712 88.8784L113.713 88.879C115.281 89.4461 116.78 89.1927 118.202 88.671L118.203 88.6709C119.417 88.2245 120.482 87.2932 120.93 86.0572C121.388 84.7947 121.172 83.3021 119.983 81.8314Z" fill="#333535" stroke="#333535"/>
<path d="M145.904 93.3668C147.21 93.349 148.567 92.934 149.705 92.2485C150.861 91.5525 151.753 90.6028 152.157 89.5628L152.157 89.5627C152.755 88.0282 152.928 86.4242 152.688 84.7899L152.688 84.7895C152.506 83.5429 152.038 82.6115 150.995 82.3435L145.904 93.3668ZM145.904 93.3668C145.497 93.2905 145.1 93.2261 144.71 93.1628C143.857 93.0245 143.038 92.8918 142.23 92.6528L142.23 92.6527C141.248 92.3632 140.605 91.8819 140.241 91.2754C139.876 90.6672 139.75 89.8649 139.935 88.8559L139.935 88.8555C140.339 86.6436 141.389 84.919 143.38 83.8625L145.904 93.3668ZM144.692 83.1359C144.376 83.3583 144.012 83.5416 143.691 83.7032C143.581 83.7586 143.476 83.8114 143.38 83.8624L144.692 83.1359ZM144.692 83.1359C144.898 82.9917 145.065 82.8106 145.192 82.6724L145.199 82.6651C145.34 82.5118 145.44 82.4058 145.548 82.3272C145.636 82.2635 145.729 82.192 145.815 82.1256C145.835 82.1097 145.856 82.0941 145.875 82.0789C145.982 81.9965 146.081 81.9227 146.176 81.8601C146.387 81.7206 146.486 81.7026 146.515 81.7047L146.515 81.7048C148.043 81.8176 149.558 81.9743 150.995 82.3434L144.692 83.1359ZM144.781 90.8903C144.719 90.8805 144.658 90.8708 144.596 90.861C144.072 90.7779 143.541 90.6938 143.017 90.5973L143.015 90.5971C142.682 90.5348 142.351 90.3862 142.148 90.0726C141.946 89.7629 141.938 89.3986 142.007 89.0591L142.007 89.0584C142.299 87.6317 142.902 86.3193 144.247 85.4346L144.248 85.4338C144.46 85.2955 144.682 85.1401 144.912 84.9797C145.336 84.6836 145.785 84.3705 146.234 84.116L146.234 84.1158C146.637 83.8875 147.156 83.8443 147.55 83.8905L147.551 83.8906C147.883 83.9304 148.203 84.0018 148.502 84.0725C148.559 84.0859 148.614 84.0991 148.669 84.1122C148.911 84.1702 149.138 84.2245 149.368 84.2662C149.603 84.3087 149.885 84.3937 150.103 84.5969C150.349 84.8262 150.446 85.14 150.411 85.4834L150.411 85.4849C150.385 85.7259 150.37 85.9737 150.354 86.2324C150.352 86.2577 150.351 86.2832 150.349 86.3088C150.335 86.5409 150.321 86.782 150.299 87.0208C150.252 87.5498 150.168 88.1073 149.957 88.6319L149.957 88.6324C149.247 90.3891 147.535 90.7942 146.07 90.9591C146.07 90.9591 146.07 90.9591 146.07 90.9591L146.021 90.5204L145.712 90.8297L145.71 90.8321L145.587 90.9549M144.781 90.8903L145.361 90.48L145.361 90.4841L145.341 90.9352C145.401 90.9379 145.452 90.9426 145.513 90.9482C145.536 90.9503 145.56 90.9526 145.587 90.9549M144.781 90.8903L144.606 91.9392L145.587 90.9549M144.781 90.8903L145.587 90.9549M146.087 90.4538L146.021 90.5204L146.087 90.4538ZM146.087 90.4538C147.517 90.2853 148.909 89.8907 149.493 88.4452L146.087 90.4538Z" fill="#333535" stroke="#333535"/>
<path d="M175.417 93.4798L175.417 93.4798C177.526 91.7393 178.335 89.3748 178.519 86.9578L178.519 86.9361C178.535 84.7156 177.672 83.3347 176.277 82.7251C175.303 82.2997 174.333 82.4839 173.734 83.0808C173.358 83.4575 172.949 83.8122 172.556 84.1524C172.412 84.2778 172.269 84.4013 172.131 84.5231C171.886 84.7415 171.642 84.9512 171.403 85.158C170.903 85.5893 170.418 86.0077 169.955 86.4642L175.417 93.4798ZM175.417 93.4798C173.826 94.793 172.089 95.1204 170.165 94.3685L170.165 94.3684M175.417 93.4798L170.165 94.3684M170.165 94.3684C168.697 93.7958 167.869 92.4696 167.997 90.8966M170.165 94.3684L167.997 90.8966M176.207 86.8039C176.082 88.7227 175.49 90.5237 173.794 91.7998L173.794 91.8C173.124 92.3031 172.338 92.5764 171.435 92.4047L171.528 91.9135M176.207 86.8039L170.541 88.9538C170.254 89.4945 170.168 90.1346 170.103 90.634L170.102 90.6348C170.047 91.065 170.066 91.5037 170.341 91.8532C170.607 92.1916 171.023 92.327 171.435 92.4048L171.528 91.9135M176.207 86.8039C176.229 86.4806 176.256 86.0194 176.075 85.6123C175.867 85.1461 175.444 84.8494 174.811 84.7364L174.223 84.6315V84.9832C172.876 86.0145 171.453 87.232 170.541 88.9536L176.207 86.8039ZM171.528 91.9135C172.263 92.0533 172.91 91.8388 173.493 91.4002L171.528 91.9135ZM167.997 90.8966C168.141 89.1687 168.738 87.6643 169.955 86.4643L167.997 90.8966Z" fill="#333535" stroke="#333535"/>
</svg>
